<svg xmlns="http://www.w3.org/2000/svg" xmlns:xlink="http://www.w3.org/1999/xlink" viewBox="0,0,256,256" width="64px" height="64px" fill-rule="nonzero"><defs><linearGradient x1="32" y1="8.25" x2="32" y2="56.76" gradientUnits="userSpaceOnUse" id="color-1"><stop offset="0" stop-color="#c1d8ff"></stop><stop offset="1" stop-color="#ecb9fc"></stop></linearGradient><linearGradient x1="32" y1="19.092" x2="32" y2="45.092" gradientUnits="userSpaceOnUse" id="color-2"><stop offset="0" stop-color="#6dc7ff"></stop><stop offset="1" stop-color="#e6abff"></stop></linearGradient></defs><g fill="none" fill-rule="nonzero" stroke="none" stroke-width="1" stroke-linecap="butt" stroke-linejoin="miter" stroke-miterlimit="10" stroke-dasharray="" stroke-dashoffset="0" font-family="none" font-weight="none" font-size="none" text-anchor="none" style="mix-blend-mode: normal"><g transform="scale(4,4)"><path d="M51,56h-38c-2.757,0 -5,-2.243 -5,-5v-38c0,-2.757 2.243,-5 5,-5h38c2.757,0 5,2.243 5,5v38c0,2.757 -2.243,5 -5,5zM13,10c-1.654,0 -3,1.346 -3,3v38c0,1.654 1.346,3 3,3h38c1.654,0 3,-1.346 3,-3v-38c0,-1.654 -1.346,-3 -3,-3z" fill="url(#color-1)"></path><path d="M44.973,22.703l2.768,-2.334c0.513,-0.433 0.211,-1.276 -0.457,-1.276h-8.022l-6.774,16.448l-7.504,-16.449h-5.71h-2.56c-0.636,0 -0.954,0.778 -0.505,1.233l3.065,3.101v2.166v15.168l-2.855,4.333h8.566l-2.855,-4.334v-13.723l6.425,18.056h3.569l7.139,-18.056v15.167l-2.855,2.889h11.422l-2.855,-2.889v-19.5z" fill="url(#color-2)"></path></g></g></svg>