<?xml version="1.0" encoding="UTF-8"?>
<svg id="Ebene_1" data-name="Ebene 1" xmlns="http://www.w3.org/2000/svg" xmlns:xlink="http://www.w3.org/1999/xlink" viewBox="0 0 340.36 171.69">
  <defs>
    <style>
      .cls-1 {
        fill: url(#Unbenannter_Verlauf_22);
      }
    </style>
    <linearGradient id="Unbenannter_Verlauf_22" data-name="Unbenannter Verlauf 22" x1="-4.76" y1="84.29" x2="300.03" y2="84.29" gradientTransform="translate(40.58 2.8) scale(1 .99) skewX(-12.07)" gradientUnits="userSpaceOnUse">
      <stop offset="0" stop-color="#cce0f4"/>
      <stop offset="0" stop-color="#c6e1ea"/>
      <stop offset="0" stop-color="#b7e4d1"/>
      <stop offset="0" stop-color="#9eeaa8"/>
      <stop offset="0" stop-color="#90ee90"/>
      <stop offset=".3" stop-color="#90ee90"/>
      <stop offset=".36" stop-color="#93eb9a"/>
      <stop offset=".47" stop-color="#9ce4b6"/>
      <stop offset=".62" stop-color="#acd8e3"/>
      <stop offset=".62" stop-color="#add8e6"/>
    </linearGradient>
  </defs>
  <path class="cls-1" d="M202.79,67.08c-3.39,15.63-9.56,29.81-18.49,42.55-8.94,12.74-19.32,23.3-31.14,31.69-12.28,8.7-25.29,15.28-39.03,19.74-13.74,4.46-27.61,6.7-41.59,6.7H0l3.41-7.62c2.03,0,4.94-.19,8.74-.58,3.79-.38,6.54-.88,8.24-1.5,3.05-1.08,5.5-2.6,7.38-4.56,1.87-1.96,3.37-4.29,4.5-6.99L85.52,28.63c.44-.92,.87-1.94,1.31-3.06,.44-1.11,.73-2.02,.88-2.71,.37-1.69,.4-3.17,.09-4.45-.31-1.27-1.27-2.33-2.89-3.17-1.83-.92-4.16-1.71-6.99-2.37-2.83-.65-5-1.1-6.51-1.33l3.41-7.62h70.43c7.03,0,14.47,.98,22.33,2.94,7.85,1.96,14.86,5.33,21.01,10.1,6.49,5,11.12,11.68,13.87,20.03,2.76,8.35,2.87,18.38,.33,30.08Zm-27.57,.16c3.75-17.25,1.96-30.66-5.35-40.21-7.31-9.55-18.75-14.33-34.31-14.33-3.21,0-6.54,.06-10.01,.17-3.47,.12-6.19,.21-8.16,.29l-57.34,127.21c-.47,1.08-.89,2.12-1.26,3.13-.38,1-.66,1.96-.86,2.89-1,4.62,.24,7.88,3.74,9.76,3.5,1.89,9.7,2.83,18.61,2.83,11.64,0,22.82-2.62,33.53-7.86,10.71-5.24,20.17-12.21,28.39-20.92,8.44-9.01,15.42-18.83,20.93-29.46,5.51-10.63,9.54-21.8,12.08-33.51Z"/>
  <path class="cls-1" d="M210.66,171.69c-8.52,0-16.25-1.46-23.19-4.39-6.94-2.93-12.62-7.21-17.02-12.83-4.47-5.7-7.44-12.6-8.93-20.69-1.49-8.09-1.12-17.23,1.08-27.4,3.16-14.57,8.61-28.17,16.36-40.81,7.74-12.64,17.07-23.93,27.98-33.87,10.51-9.56,22.31-17.23,35.4-23.01,13.09-5.78,26.08-8.67,38.97-8.67,9.76,0,18.09,1.13,24.99,3.38,6.89,2.26,12.36,5.05,16.4,8.39l8.27-7.85h9.38l-25.34,58.42h-9.61l1-4.63c1.37-6.32,2.17-12.36,2.41-18.11,.23-5.75-.6-10.93-2.48-15.56-1.84-4.47-4.92-8.04-9.22-10.7-4.31-2.66-10.25-3.99-17.82-3.99-9.61,0-19.08,2.53-28.42,7.58-9.34,5.05-17.93,11.77-25.77,20.18-7.71,8.17-14.66,18.23-20.85,30.18-6.19,11.95-10.63,24.13-13.32,36.54-3.56,16.42-2.38,29.74,3.57,39.95,5.95,10.21,15.79,15.32,29.55,15.32,11.48,0,22.78-3.35,33.88-10.04,11.1-6.7,20.92-15.66,29.45-26.9l7.48,4.39c-13.44,16.55-26.95,28.21-40.52,34.98-13.58,6.77-28.14,10.16-43.69,10.16Z"/>
</svg>